# xmcd
#
# Track frame offsets: 
#        150
#        22014
#        41254
#        55174
#        69395
#        86940
#        102863
#        128939
#        149427
#        174848
#        191109
#        220853
#        233006
#        256341
#        277379
#        301483
#        329365
#
# Disc length: 4601 seconds
#
# Revision: 1
# Processed by: cddbd v1.5.2PL0 Copyright (c) Steve Scherf et al.
# Submitted via: ExactAudioCopy v1.0b3
#
DISCID=fd11f711
DTITLE=Various Artist - Bassoradio Compilation: Sounds of The Helsink
DTITLE=i Underground
DYEAR=2005
DGENRE=Breakbeat, House, Electro, Hip Hop, Tech House
TTITLE0=Elemental - Afro #1
TTITLE1=Stig Dogg - Viva
TTITLE2=Kuningas P‰hkin‰ - Mets‰‰n Gentlemanni
TTITLE3=Nopsajalka - Ei Voi Pys‰ytt‰‰
TTITLE4=Jontti and Jodarok - Mikki ja M‰yris
TTITLE5=Timantti and Kultasormi - Nuthin` but a KNP Thang (feat. DJ Turb
TTITLE5=iini)
TTITLE6=Accu - Rolling (VIP Remix)
TTITLE7=Monterosso International - Monterosso
TTITLE8=The Executives - Highly Acclaimed
TTITLE9=LBJ - Whatza done
TTITLE10=Oded Peled and Juho Kahilainen - Get Loud
TTITLE11=Orkidea - 5th Lane
TTITLE12=Imatran Voima - I Wanna Get Hi
TTITLE13=Polytron - More Than Meets The Mind
TTITLE14=Hetikohta - Space Age
TTITLE15=Samuli Kemppi - Pax
TTITLE16=Syv2 Un1 - Ashitaka
EXTD=
EXTT0=
EXTT1=
EXTT2=
EXTT3=
EXTT4=
EXTT5=
EXTT6=
EXTT7=
EXTT8=
EXTT9=
EXTT10=
EXTT11=
EXTT12=
EXTT13=
EXTT14=
EXTT15=
EXTT16=
PLAYORDER=
